<svg height="3470" width="720" xmlns="http://www.w3.org/2000/svg">
<rect height="3470" fill="#555" width="720"></rect>
<text fill="#7f7" font-family="Courier New" font-size="12" xml:space="preserve">
<tspan x="10" y="26">25 megabytes installed</tspan>
<tspan x="10" y="42"></tspan>
<tspan x="10" y="58">node_modules</tspan>
<tspan x="10" y="74">└─┬ auto-install@1.7.3 </tspan>
<tspan x="10" y="90">  ├─┬ chokidar@1.6.1 </tspan>
<tspan x="10" y="106">  │ ├─┬ anymatch@1.3.0 </tspan>
<tspan x="10" y="122">  │ │ ├── arrify@1.0.1 </tspan>
<tspan x="10" y="138">  │ │ └─┬ micromatch@2.3.11 </tspan>
<tspan x="10" y="154">  │ │   ├─┬ arr-diff@2.0.0 </tspan>
<tspan x="10" y="170">  │ │   │ └── arr-flatten@1.0.1 </tspan>
<tspan x="10" y="186">  │ │   ├── array-unique@0.2.1 </tspan>
<tspan x="10" y="202">  │ │   ├─┬ braces@1.8.5 </tspan>
<tspan x="10" y="218">  │ │   │ ├─┬ expand-range@1.8.2 </tspan>
<tspan x="10" y="234">  │ │   │ │ └─┬ fill-range@2.2.3 </tspan>
<tspan x="10" y="250">  │ │   │ │   ├── is-number@2.1.0 </tspan>
<tspan x="10" y="266">  │ │   │ │   ├── isobject@2.1.0 </tspan>
<tspan x="10" y="282">  │ │   │ │   ├── randomatic@1.1.6 </tspan>
<tspan x="10" y="298">  │ │   │ │   └── repeat-string@1.6.1 </tspan>
<tspan x="10" y="314">  │ │   │ ├── preserve@0.2.0 </tspan>
<tspan x="10" y="330">  │ │   │ └── repeat-element@1.1.2 </tspan>
<tspan x="10" y="346">  │ │   ├─┬ expand-brackets@0.1.5 </tspan>
<tspan x="10" y="362">  │ │   │ └── is-posix-bracket@0.1.1 </tspan>
<tspan x="10" y="378">  │ │   ├── extglob@0.3.2 </tspan>
<tspan x="10" y="394">  │ │   ├── filename-regex@2.0.0 </tspan>
<tspan x="10" y="410">  │ │   ├─┬ kind-of@3.1.0 </tspan>
<tspan x="10" y="426">  │ │   │ └── is-buffer@1.1.5 </tspan>
<tspan x="10" y="442">  │ │   ├─┬ normalize-path@2.1.1 </tspan>
<tspan x="10" y="458">  │ │   │ └── remove-trailing-separator@1.0.1 </tspan>
<tspan x="10" y="474">  │ │   ├─┬ object.omit@2.0.1 </tspan>
<tspan x="10" y="490">  │ │   │ ├─┬ for-own@0.1.5 </tspan>
<tspan x="10" y="506">  │ │   │ │ └── for-in@1.0.2 </tspan>
<tspan x="10" y="522">  │ │   │ └── is-extendable@0.1.1 </tspan>
<tspan x="10" y="538">  │ │   ├─┬ parse-glob@3.0.4 </tspan>
<tspan x="10" y="554">  │ │   │ ├── glob-base@0.3.0 </tspan>
<tspan x="10" y="570">  │ │   │ └── is-dotfile@1.0.2 </tspan>
<tspan x="10" y="586">  │ │   └─┬ regex-cache@0.4.3 </tspan>
<tspan x="10" y="602">  │ │     ├── is-equal-shallow@0.1.3 </tspan>
<tspan x="10" y="618">  │ │     └── is-primitive@2.0.0 </tspan>
<tspan x="10" y="634">  │ ├── async-each@1.0.1 </tspan>
<tspan x="10" y="650">  │ ├── glob-parent@2.0.0 </tspan>
<tspan x="10" y="666">  │ ├── inherits@2.0.3 </tspan>
<tspan x="10" y="682">  │ ├─┬ is-binary-path@1.0.1 </tspan>
<tspan x="10" y="698">  │ │ └── binary-extensions@1.8.0 </tspan>
<tspan x="10" y="714">  │ ├─┬ is-glob@2.0.1 </tspan>
<tspan x="10" y="730">  │ │ └── is-extglob@1.0.0 </tspan>
<tspan x="10" y="746">  │ ├── path-is-absolute@1.0.1 </tspan>
<tspan x="10" y="762">  │ └─┬ readdirp@2.1.0 </tspan>
<tspan x="10" y="778">  │   ├── graceful-fs@4.1.11 </tspan>
<tspan x="10" y="794">  │   ├─┬ readable-stream@2.2.9 </tspan>
<tspan x="10" y="810">  │   │ ├── buffer-shims@1.0.0 </tspan>
<tspan x="10" y="826">  │   │ ├── core-util-is@1.0.2 </tspan>
<tspan x="10" y="842">  │   │ ├── isarray@1.0.0 </tspan>
<tspan x="10" y="858">  │   │ ├── process-nextick-args@1.0.7 </tspan>
<tspan x="10" y="874">  │   │ ├── string_decoder@1.0.0 </tspan>
<tspan x="10" y="890">  │   │ └── util-deprecate@1.0.2 </tspan>
<tspan x="10" y="906">  │   └── set-immediate-shim@1.0.1 </tspan>
<tspan x="10" y="922">  ├── colors@1.1.2 </tspan>
<tspan x="10" y="938">  ├─┬ detective@4.3.2 </tspan>
<tspan x="10" y="954">  │ ├── acorn@3.3.0 </tspan>
<tspan x="10" y="970">  │ └── defined@1.0.0 </tspan>
<tspan x="10" y="986">  ├─┬ detective-es6@1.1.5 </tspan>
<tspan x="10" y="1002">  │ └─┬ node-source-walk@3.2.0 </tspan>
<tspan x="10" y="1018">  │   └─┬ babylon@6.8.4 </tspan>
<tspan x="10" y="1034">  │     └─┬ babel-runtime@6.23.0 </tspan>
<tspan x="10" y="1050">  │       ├── core-js@2.4.1 </tspan>
<tspan x="10" y="1066">  │       └── regenerator-runtime@0.10.3 </tspan>
<tspan x="10" y="1082">  ├─┬ glob@7.1.0 </tspan>
<tspan x="10" y="1098">  │ ├── fs.realpath@1.0.0 </tspan>
<tspan x="10" y="1114">  │ ├─┬ inflight@1.0.6 </tspan>
<tspan x="10" y="1130">  │ │ └── wrappy@1.0.2 </tspan>
<tspan x="10" y="1146">  │ ├─┬ minimatch@3.0.3 </tspan>
<tspan x="10" y="1162">  │ │ └─┬ brace-expansion@1.1.7 </tspan>
<tspan x="10" y="1178">  │ │   ├── balanced-match@0.4.2 </tspan>
<tspan x="10" y="1194">  │ │   └── concat-map@0.0.1 </tspan>
<tspan x="10" y="1210">  │ └── once@1.4.0 </tspan>
<tspan x="10" y="1226">  ├─┬ is-builtin-module@1.0.0 </tspan>
<tspan x="10" y="1242">  │ └── builtin-modules@1.1.1 </tspan>
<tspan x="10" y="1258">  ├─┬ log-symbols@1.0.2 </tspan>
<tspan x="10" y="1274">  │ └─┬ chalk@1.1.3 </tspan>
<tspan x="10" y="1290">  │   ├── ansi-styles@2.2.1 </tspan>
<tspan x="10" y="1306">  │   ├── escape-string-regexp@1.0.5 </tspan>
<tspan x="10" y="1322">  │   ├─┬ has-ansi@2.0.0 </tspan>
<tspan x="10" y="1338">  │   │ └── ansi-regex@2.1.1 </tspan>
<tspan x="10" y="1354">  │   ├── strip-ansi@3.0.1 </tspan>
<tspan x="10" y="1370">  │   └── supports-color@2.0.0 </tspan>
<tspan x="10" y="1386">  ├─┬ ora@0.3.0 </tspan>
<tspan x="10" y="1402">  │ ├─┬ cli-cursor@1.0.2 </tspan>
<tspan x="10" y="1418">  │ │ └─┬ restore-cursor@1.0.1 </tspan>
<tspan x="10" y="1434">  │ │   ├── exit-hook@1.1.1 </tspan>
<tspan x="10" y="1450">  │ │   └── onetime@1.1.0 </tspan>
<tspan x="10" y="1466">  │ └── cli-spinners@0.2.0 </tspan>
<tspan x="10" y="1482">  ├─┬ package-json@2.4.0 </tspan>
<tspan x="10" y="1498">  │ ├─┬ got@5.7.1 </tspan>
<tspan x="10" y="1514">  │ │ ├─┬ create-error-class@3.0.2 </tspan>
<tspan x="10" y="1530">  │ │ │ └── capture-stack-trace@1.0.0 </tspan>
<tspan x="10" y="1546">  │ │ ├── duplexer2@0.1.4 </tspan>
<tspan x="10" y="1562">  │ │ ├── is-redirect@1.0.0 </tspan>
<tspan x="10" y="1578">  │ │ ├── is-retry-allowed@1.1.0 </tspan>
<tspan x="10" y="1594">  │ │ ├── is-stream@1.1.0 </tspan>
<tspan x="10" y="1610">  │ │ ├── lowercase-keys@1.0.0 </tspan>
<tspan x="10" y="1626">  │ │ ├── node-status-codes@1.0.0 </tspan>
<tspan x="10" y="1642">  │ │ ├── object-assign@4.1.1 </tspan>
<tspan x="10" y="1658">  │ │ ├─┬ parse-json@2.2.0 </tspan>
<tspan x="10" y="1674">  │ │ │ └─┬ error-ex@1.3.1 </tspan>
<tspan x="10" y="1690">  │ │ │   └── is-arrayish@0.2.1 </tspan>
<tspan x="10" y="1706">  │ │ ├─┬ pinkie-promise@2.0.1 </tspan>
<tspan x="10" y="1722">  │ │ │ └── pinkie@2.0.4 </tspan>
<tspan x="10" y="1738">  │ │ ├── read-all-stream@3.1.0 </tspan>
<tspan x="10" y="1754">  │ │ ├── timed-out@3.1.3 </tspan>
<tspan x="10" y="1770">  │ │ ├── unzip-response@1.0.2 </tspan>
<tspan x="10" y="1786">  │ │ └─┬ url-parse-lax@1.0.0 </tspan>
<tspan x="10" y="1802">  │ │   └── prepend-http@1.0.4 </tspan>
<tspan x="10" y="1818">  │ ├─┬ registry-auth-token@3.1.2 </tspan>
<tspan x="10" y="1834">  │ │ └─┬ rc@1.2.1 </tspan>
<tspan x="10" y="1850">  │ │   ├── deep-extend@0.4.1 </tspan>
<tspan x="10" y="1866">  │ │   ├── ini@1.3.4 </tspan>
<tspan x="10" y="1882">  │ │   ├── minimist@1.2.0 </tspan>
<tspan x="10" y="1898">  │ │   └── strip-json-comments@2.0.1 </tspan>
<tspan x="10" y="1914">  │ ├── registry-url@3.1.0 </tspan>
<tspan x="10" y="1930">  │ └── semver@5.3.0 </tspan>
<tspan x="10" y="1946">  ├─┬ request@2.74.0 </tspan>
<tspan x="10" y="1962">  │ ├── aws-sign2@0.6.0 </tspan>
<tspan x="10" y="1978">  │ ├── aws4@1.6.0 </tspan>
<tspan x="10" y="1994">  │ ├─┬ bl@1.1.2 </tspan>
<tspan x="10" y="2010">  │ │ └─┬ readable-stream@2.0.6 </tspan>
<tspan x="10" y="2026">  │ │   └── string_decoder@0.10.31 </tspan>
<tspan x="10" y="2042">  │ ├── caseless@0.11.0 </tspan>
<tspan x="10" y="2058">  │ ├─┬ combined-stream@1.0.5 </tspan>
<tspan x="10" y="2074">  │ │ └── delayed-stream@1.0.0 </tspan>
<tspan x="10" y="2090">  │ ├── extend@3.0.0 </tspan>
<tspan x="10" y="2106">  │ ├── forever-agent@0.6.1 </tspan>
<tspan x="10" y="2122">  │ ├─┬ form-data@1.0.1 </tspan>
<tspan x="10" y="2138">  │ │ └─┬ async@2.3.0 </tspan>
<tspan x="10" y="2154">  │ │   └── lodash@4.17.4 </tspan>
<tspan x="10" y="2170">  │ ├─┬ har-validator@2.0.6 </tspan>
<tspan x="10" y="2186">  │ │ ├─┬ commander@2.9.0 </tspan>
<tspan x="10" y="2202">  │ │ │ └── graceful-readlink@1.0.1 </tspan>
<tspan x="10" y="2218">  │ │ └─┬ is-my-json-valid@2.16.0 </tspan>
<tspan x="10" y="2234">  │ │   ├── generate-function@2.0.0 </tspan>
<tspan x="10" y="2250">  │ │   ├─┬ generate-object-property@1.2.0 </tspan>
<tspan x="10" y="2266">  │ │   │ └── is-property@1.0.2 </tspan>
<tspan x="10" y="2282">  │ │   ├── jsonpointer@4.0.1 </tspan>
<tspan x="10" y="2298">  │ │   └── xtend@4.0.1 </tspan>
<tspan x="10" y="2314">  │ ├─┬ hawk@3.1.3 </tspan>
<tspan x="10" y="2330">  │ │ ├── boom@2.10.1 </tspan>
<tspan x="10" y="2346">  │ │ ├── cryptiles@2.0.5 </tspan>
<tspan x="10" y="2362">  │ │ ├── hoek@2.16.3 </tspan>
<tspan x="10" y="2378">  │ │ └── sntp@1.0.9 </tspan>
<tspan x="10" y="2394">  │ ├─┬ http-signature@1.1.1 </tspan>
<tspan x="10" y="2410">  │ │ ├── assert-plus@0.2.0 </tspan>
<tspan x="10" y="2426">  │ │ ├─┬ jsprim@1.4.0 </tspan>
<tspan x="10" y="2442">  │ │ │ ├── assert-plus@1.0.0 </tspan>
<tspan x="10" y="2458">  │ │ │ ├── extsprintf@1.0.2 </tspan>
<tspan x="10" y="2474">  │ │ │ ├── json-schema@0.2.3 </tspan>
<tspan x="10" y="2490">  │ │ │ └── verror@1.3.6 </tspan>
<tspan x="10" y="2506">  │ │ └─┬ sshpk@1.11.0 </tspan>
<tspan x="10" y="2522">  │ │   ├── asn1@0.2.3 </tspan>
<tspan x="10" y="2538">  │ │   ├── assert-plus@1.0.0 </tspan>
<tspan x="10" y="2554">  │ │   ├── bcrypt-pbkdf@1.0.1 </tspan>
<tspan x="10" y="2570">  │ │   ├─┬ dashdash@1.14.1 </tspan>
<tspan x="10" y="2586">  │ │   │ └── assert-plus@1.0.0 </tspan>
<tspan x="10" y="2602">  │ │   ├── ecc-jsbn@0.1.1 </tspan>
<tspan x="10" y="2618">  │ │   ├─┬ getpass@0.1.6 </tspan>
<tspan x="10" y="2634">  │ │   │ └── assert-plus@1.0.0 </tspan>
<tspan x="10" y="2650">  │ │   ├── jodid25519@1.0.2 </tspan>
<tspan x="10" y="2666">  │ │   ├── jsbn@0.1.1 </tspan>
<tspan x="10" y="2682">  │ │   └── tweetnacl@0.14.5 </tspan>
<tspan x="10" y="2698">  │ ├── is-typedarray@1.0.0 </tspan>
<tspan x="10" y="2714">  │ ├── isstream@0.1.2 </tspan>
<tspan x="10" y="2730">  │ ├── json-stringify-safe@5.0.1 </tspan>
<tspan x="10" y="2746">  │ ├─┬ mime-types@2.1.15 </tspan>
<tspan x="10" y="2762">  │ │ └── mime-db@1.27.0 </tspan>
<tspan x="10" y="2778">  │ ├── node-uuid@1.4.8 </tspan>
<tspan x="10" y="2794">  │ ├── oauth-sign@0.8.2 </tspan>
<tspan x="10" y="2810">  │ ├── qs@6.2.3 </tspan>
<tspan x="10" y="2826">  │ ├── stringstream@0.0.5 </tspan>
<tspan x="10" y="2842">  │ ├─┬ tough-cookie@2.3.2 </tspan>
<tspan x="10" y="2858">  │ │ └── punycode@1.4.1 </tspan>
<tspan x="10" y="2874">  │ └── tunnel-agent@0.4.3 </tspan>
<tspan x="10" y="2890">  ├── sync-exec@0.6.2 </tspan>
<tspan x="10" y="2906">  └─┬ yargs@6.3.0 </tspan>
<tspan x="10" y="2922">    ├── camelcase@3.0.0 </tspan>
<tspan x="10" y="2938">    ├─┬ cliui@3.2.0 </tspan>
<tspan x="10" y="2954">    │ └── wrap-ansi@2.1.0 </tspan>
<tspan x="10" y="2970">    ├── decamelize@1.2.0 </tspan>
<tspan x="10" y="2986">    ├── get-caller-file@1.0.2 </tspan>
<tspan x="10" y="3002">    ├─┬ os-locale@1.4.0 </tspan>
<tspan x="10" y="3018">    │ └─┬ lcid@1.0.0 </tspan>
<tspan x="10" y="3034">    │   └── invert-kv@1.0.0 </tspan>
<tspan x="10" y="3050">    ├─┬ read-pkg-up@1.0.1 </tspan>
<tspan x="10" y="3066">    │ ├─┬ find-up@1.1.2 </tspan>
<tspan x="10" y="3082">    │ │ └── path-exists@2.1.0 </tspan>
<tspan x="10" y="3098">    │ └─┬ read-pkg@1.1.0 </tspan>
<tspan x="10" y="3114">    │   ├─┬ load-json-file@1.1.0 </tspan>
<tspan x="10" y="3130">    │   │ ├── pify@2.3.0 </tspan>
<tspan x="10" y="3146">    │   │ └─┬ strip-bom@2.0.0 </tspan>
<tspan x="10" y="3162">    │   │   └── is-utf8@0.2.1 </tspan>
<tspan x="10" y="3178">    │   ├─┬ normalize-package-data@2.3.6 </tspan>
<tspan x="10" y="3194">    │   │ ├── hosted-git-info@2.4.1 </tspan>
<tspan x="10" y="3210">    │   │ └─┬ validate-npm-package-license@3.0.1 </tspan>
<tspan x="10" y="3226">    │   │   ├─┬ spdx-correct@1.0.2 </tspan>
<tspan x="10" y="3242">    │   │   │ └── spdx-license-ids@1.2.2 </tspan>
<tspan x="10" y="3258">    │   │   └── spdx-expression-parse@1.0.4 </tspan>
<tspan x="10" y="3274">    │   └── path-type@1.1.0 </tspan>
<tspan x="10" y="3290">    ├── require-directory@2.1.1 </tspan>
<tspan x="10" y="3306">    ├── require-main-filename@1.0.1 </tspan>
<tspan x="10" y="3322">    ├── set-blocking@2.0.0 </tspan>
<tspan x="10" y="3338">    ├─┬ string-width@1.0.2 </tspan>
<tspan x="10" y="3354">    │ ├── code-point-at@1.1.0 </tspan>
<tspan x="10" y="3370">    │ └─┬ is-fullwidth-code-point@1.0.0 </tspan>
<tspan x="10" y="3386">    │   └── number-is-nan@1.0.1 </tspan>
<tspan x="10" y="3402">    ├── which-module@1.0.0 </tspan>
<tspan x="10" y="3418">    ├── window-size@0.2.0 </tspan>
<tspan x="10" y="3434">    ├── y18n@3.2.1 </tspan>
<tspan x="10" y="3450">    └── yargs-parser@4.2.1</tspan>
</text>
</svg>
