<svg height="1294" width="720" xmlns="http://www.w3.org/2000/svg">
<rect height="1294" fill="#555" width="720"></rect>
<text fill="#7f7" font-family="Courier New" font-size="12" xml:space="preserve">
<tspan x="10" y="26"></tspan>
<tspan x="10" y="42">&gt; npmtest-auto-install@0.0.1 test /home/travis/build/npmtest/node-npmtest-auto-install</tspan>
<tspan x="10" y="58">&gt; (set -e; export PORT=$(utility2 shServerPortRandom); utility2 test test.js)</tspan>
<tspan x="10" y="74"></tspan>
<tspan x="10" y="90"></tspan>
<tspan x="10" y="106">[MODE_BUILD=npmTest] - 2017-04-11T10:08:45Z - npm-testing /home/travis/build/npmtest/node-npmtes\</tspan>
<tspan x="10" y="122">t-auto-install</tspan>
<tspan x="10" y="138"></tspan>
<tspan x="10" y="154">merging file:///home/travis/build/npmtest/node-npmtest-auto-install/tmp/build/test-report.json t\</tspan>
<tspan x="10" y="170">o test-report</tspan>
<tspan x="10" y="186">&gt; server listening on http-port 56136</tspan>
<tspan x="10" y="202">[node test-case 1 of 6 passed] - testCase_buildLib_default</tspan>
<tspan x="10" y="218">[node test-case 2 of 6 passed] - testCase_buildReadme_default</tspan>
<tspan x="10" y="234">[node test-case 3 of 6 passed] - testCase_buildTest_default</tspan>
<tspan x="10" y="250"></tspan>
<tspan x="10" y="266">browserTest - created electron entry-page /home/travis/build/npmtest/node-npmtest-auto-install/t\</tspan>
<tspan x="10" y="282">mp/electron.15b5c7cb1500.4a8769a0fc6c7.html</tspan>
<tspan x="10" y="298"></tspan>
<tspan x="10" y="314">[node test-case 4 of 6 passed] - testCase_buildApidoc_default</tspan>
<tspan x="10" y="330">Xlib:  extension "RANDR" missing on display ":99.0".</tspan>
<tspan x="10" y="346">merging file:///home/travis/build/npmtest/node-npmtest-auto-install/tmp/build/test-report.json t\</tspan>
<tspan x="10" y="362">o test-report</tspan>
<tspan x="10" y="378">Xlib:  extension "RANDR" missing on display ":99.0".</tspan>
<tspan x="10" y="394">[5474:0411/100848.161453:WARNING:audio_manager.cc(317)] Multiple instances of AudioManager detec\</tspan>
<tspan x="10" y="410">ted</tspan>
<tspan x="10" y="426">[5474:0411/100848.161529:WARNING:audio_manager.cc(278)] Multiple instances of AudioManager detec\</tspan>
<tspan x="10" y="442">ted</tspan>
<tspan x="10" y="458">[5492:0411/100848.204950:ERROR:sandbox_linux.cc(343)] InitializeSandbox() called with multiple t\</tspan>
<tspan x="10" y="474">hreads in process gpu-process. </tspan>
<tspan x="10" y="490">[5474:0411/100848.318774:ERROR:browser_gpu_channel_host_factory.cc(125)] Failed to create channe\</tspan>
<tspan x="10" y="506">l.</tspan>
<tspan x="10" y="522">[5474:0411/100848.319294:ERROR:browser_gpu_channel_host_factory.cc(125)] Failed to create channe\</tspan>
<tspan x="10" y="538">l.</tspan>
<tspan x="10" y="554">[5474:0411/100848.320113:ERROR:browser_gpu_channel_host_factory.cc(125)] Failed to create channe\</tspan>
<tspan x="10" y="570">l.</tspan>
<tspan x="10" y="586">[5474:0411/100848.322210:ERROR:browser_gpu_channel_host_factory.cc(125)] Failed to create channe\</tspan>
<tspan x="10" y="602">l.</tspan>
<tspan x="10" y="618">[5474:0411/100848.322486:ERROR:browser_gpu_channel_host_factory.cc(125)] Failed to create channe\</tspan>
<tspan x="10" y="634">l.</tspan>
<tspan x="10" y="650"></tspan>
<tspan x="10" y="666">browserTest - opened url http://127.0.0.1:56136?modeTest=1</tspan>
<tspan x="10" y="682"></tspan>
<tspan x="10" y="698">&gt; server listening on http-port 45042</tspan>
<tspan x="10" y="714">[node test-case 5 of 6 passed] - testCase_buildApp_default</tspan>
<tspan x="10" y="730"></tspan>
<tspan x="10" y="746">browserTest - created screenCapture file:///home/travis/build/npmtest/node-npmtest-auto-install/\</tspan>
<tspan x="10" y="762">tmp/build/screenCapture.npmTest.browser.%2F.png</tspan>
<tspan x="10" y="778"></tspan>
<tspan x="10" y="794">browserTest - created screenCapture file:///home/travis/build/npmtest/node-npmtest-auto-install/\</tspan>
<tspan x="10" y="810">tmp/build/screenCapture.npmTest.browser.%2F.html</tspan>
<tspan x="10" y="826"></tspan>
<tspan x="10" y="842">browserTest - exit-code 0 - http://127.0.0.1:56136?modeTest=1</tspan>
<tspan x="10" y="858"></tspan>
<tspan x="10" y="874"></tspan>
<tspan x="10" y="890">browserTest - merging test-report from /home/travis/build/npmtest/node-npmtest-auto-install/tmp/\</tspan>
<tspan x="10" y="906">test-report.npmTest.browser.%2F.json</tspan>
<tspan x="10" y="922"></tspan>
<tspan x="10" y="938">[node test-case 6 of 6 passed] - testCase_webpage_default</tspan>
<tspan x="10" y="954">merging file:///home/travis/build/npmtest/node-npmtest-auto-install/tmp/build/test-report.json t\</tspan>
<tspan x="10" y="970">o test-report</tspan>
<tspan x="10" y="986"></tspan>
<tspan x="10" y="1002">-------------------------------------------------------</tspan>
<tspan x="10" y="1018">| test-report - buildCustomOrg - browser - / - Mozilla/5.0 (X11; Linux x86_64) AppleWebKit/537.3\</tspan>
<tspan x="10" y="1034">6 (KHTML, like Gecko) Chrome/56.0.2924.87 Electron/1.6.2 Safari/537.36 - 2017-04-11T10:07:56.403\</tspan>
<tspan x="10" y="1050">Z</tspan>
<tspan x="10" y="1066">|   67361 ms            0 failed        6 passed      |</tspan>
<tspan x="10" y="1082">-------------------------------------------------------</tspan>
<tspan x="10" y="1098">| test-report - buildCustomOrg - node - linux v6.10.2 - 2017-04-11T10:05:53.048Z</tspan>
<tspan x="10" y="1114">|   16629 ms            0 failed        6 passed      |</tspan>
<tspan x="10" y="1130">-------------------------------------------------------</tspan>
<tspan x="10" y="1146"></tspan>
<tspan x="10" y="1162">created test-report file:///home/travis/build/npmtest/node-npmtest-auto-install/tmp/build/test-r\</tspan>
<tspan x="10" y="1178">eport.html</tspan>
<tspan x="10" y="1194"></tspan>
<tspan x="10" y="1210"></tspan>
<tspan x="10" y="1226">npmTest - 0 failed tests</tspan>
<tspan x="10" y="1242"></tspan>
<tspan x="10" y="1258"></tspan>
<tspan x="10" y="1274">[MODE_BUILD=npmTest] - 2017-04-11T10:09:05Z - EXIT_CODE - 0</tspan>
</text>
</svg>
